<?xml version="1.0" encoding="UTF-8" standalone="no"?>
<svg
   xmlns:dc="http://purl.org/dc/elements/1.1/"
   xmlns:cc="http://creativecommons.org/ns#"
   xmlns:rdf="http://www.w3.org/1999/02/22-rdf-syntax-ns#"
   xmlns:svg="http://www.w3.org/2000/svg"
   xmlns="http://www.w3.org/2000/svg"
   xmlns:xlink="http://www.w3.org/1999/xlink"
   id="svg8"
   version="1.1"
   viewBox="0 0 143.00554 113.4945"
   height="113.4945mm"
   width="143.00554mm">
  <defs
     id="defs2">
    <linearGradient
       id="linearGradient855">
      <stop
         id="stop851"
         offset="0"
         style="stop-color:#6227b5;stop-opacity:1;" />
      <stop
         id="stop853"
         offset="1"
         style="stop-color:#6227b5;stop-opacity:0;" />
    </linearGradient>
    <linearGradient
       gradientUnits="userSpaceOnUse"
       y2="230.66301"
       x2="168.4473"
       y1="118.40981"
       x1="65.03875"
       id="linearGradient857"
       xlink:href="#linearGradient855" />
  </defs>
  <metadata
     id="metadata5">
    <rdf:RDF>
      <cc:Work
         rdf:about="">
        <dc:format>image/svg+xml</dc:format>
        <dc:type
           rdf:resource="http://purl.org/dc/dcmitype/StillImage" />
        <dc:title></dc:title>
      </cc:Work>
    </rdf:RDF>
  </metadata>
  <g
     transform="translate(-24.90722,-80.100284)"
     id="layer1">
    <path
       id="path815"
       d="m 103.16604,82.38257 c 22.71791,6.815371 4.54358,29.93419 4.54358,29.93419 0,0 -8.249422,11.46255 0.53454,18.44159 9.75534,7.75082 34.47777,-9.35443 34.47777,-9.35443 0,0 16.49054,-9.74566 23.51972,5.47903 8.56403,18.54905 -18.57524,31.93871 -18.57524,31.93871 0,0 -26.05877,10.69077 -34.34413,9.88896 -8.28535,-0.8018 -17.90706,-16.97161 -29.666918,-13.89801 -13.096207,5.61266 -5.612659,20.71339 -14.566189,30.46872 -10.289877,9.62171 -43.229655,15.00748 -44.099473,-7.48354 -0.935442,-24.18789 6.394659,-42.08627 6.394659,-42.08627 17.32941,-40.013126 30.908909,-63.243451 71.781681,-53.32895 z"
       style="fill:url(#linearGradient857);fill-opacity:1;stroke:none;stroke-width:0.26458332px;stroke-linecap:butt;stroke-linejoin:miter;stroke-opacity:1" />
  </g>
</svg>
